<svg width="132" height="34" viewBox="0 0 132 34" fill="none" xmlns="http://www.w3.org/2000/svg" aria-label="KLAS">
  <path d="M4 4H10.8V15.4L23.2 4H31.7L17.8 16.6L32.6 30H23.5L10.8 18.1V30H4V4Z" fill="#0D0D0D"/>
  <path d="M45.5 7.5H49.2V26.5H60.8V30H45.5V7.5Z" fill="#0D0D0D"/>
  <path d="M79.4 7.5H83.2L92.7 30H88.6L86.5 24.8H76L73.9 30H69.9L79.4 7.5ZM85.2 21.5L81.3 11.9L77.4 21.5H85.2Z" fill="#0D0D0D"/>
  <path d="M111.3 30.4C108.7 30.4 106.5 29.9 104.7 28.9C102.9 27.9 101.5 26.5 100.5 24.8L103.6 22.6C104.5 24 105.6 25 106.8 25.7C108.1 26.4 109.7 26.8 111.5 26.8C113.1 26.8 114.3 26.5 115.2 25.9C116.1 25.3 116.6 24.5 116.6 23.5C116.6 22.5 116.2 21.8 115.4 21.3C114.6 20.8 113.2 20.3 111.2 19.8L109.3 19.4C104.5 18.3 102.1 15.9 102.1 12.4C102.1 10.4 102.9 8.8 104.5 7.6C106.1 6.4 108.2 6 110.8 6C115.1 6 118.3 7.5 120.4 10.6L117.3 12.8C116.5 11.7 115.6 10.9 114.5 10.4C113.5 9.8 112.2 9.5 110.7 9.5C109.3 9.5 108.2 9.8 107.4 10.3C106.6 10.8 106.2 11.6 106.2 12.6C106.2 13.6 106.6 14.3 107.4 14.8C108.2 15.3 109.5 15.7 111.4 16.1L113.4 16.6C116 17.2 117.9 18.1 119.1 19.3C120.3 20.4 120.9 21.9 120.9 23.7C120.9 25.8 120.1 27.4 118.4 28.6C116.7 29.5 114.4 30.4 111.3 30.4Z" fill="#0D0D0D"/>
</svg>
